<svg height="512pt" style="fill: #fff;" viewBox="0 -9 512 512" width="512pt" xmlns="http://www.w3.org/2000/svg"><path d="m420.023438 323.671875c7.5-38.003906 7.5-76.539063 0-114.542969-3.878907-19.636718-20.609376-34.46875-40.695313-36.070312-78.265625-6.242188-157.636719-6.242188-235.902344 0-20.085937 1.601562-36.816406 16.433594-40.695312 36.070312-7.5 38.003906-7.5 76.539063 0 114.542969 3.878906 19.636719 20.609375 34.46875 40.695312 36.070313 39.132813 3.121093 78.542969 4.679687 117.953125 4.679687 39.40625 0 78.816406-1.558594 117.953125-4.679687 20.082031-1.601563 36.8125-16.433594 40.691407-36.070313zm-41.917969 20.714844c-77.457031 6.175781-156.003907 6.175781-233.457031 0-13.238282-1.054688-24.257813-10.800781-26.804688-23.699219-7.109375-36.023438-7.109375-72.554688 0-108.574219 2.546875-12.898437 13.566406-22.644531 26.804688-23.699219 77.453124-6.175781 156-6.175781 233.457031 0 13.234375 1.054688 24.253906 10.800782 26.800781 23.699219 7.113281 36.019531 7.113281 72.550781 0 108.574219-2.542969 12.898438-13.566406 22.644531-26.800781 23.699219zm0 0"/><path d="m184.992188 258.007812c-5.949219-2.523437-11.089844-4.707031-11.089844-9.457031 0-4.582031 3.878906-7.210937 10.644531-7.210937 4.949219 0 7.707031 1.414062 9.71875 2.445312 1.277344.660156 2.289063 1.179688 3.4375 1.179688 1.96875 0 3.195313-1.378906 3.878906-2.53125.890625-1.511719 1.207031-3.195313 1.207031-4.175782 0-2.8125-2.367187-4.929687-7.039062-6.296874-4.625-1.355469-9.742188-1.460938-11.203125-1.460938-11.261719 0-23.296875 5.042969-23.296875 19.199219 0 12.667969 9.554688 16.910156 17.980469 20.652343 6.773437 3.007813 12.625 5.605469 12.625 11.859376 0 3.949218-2.769531 8.164062-10.550781 8.164062-5.90625 0-9.109376-2.6875-11.679688-4.851562-1.65625-1.390626-2.964844-2.488282-4.527344-2.488282-3.070312 0-5.5625 4.117188-5.5625 6.804688 0 5.640625 9.472656 11.949218 22.152344 11.949218 6.703125 0 12.363281-1.820312 16.363281-5.261718 4.222657-3.636719 6.457031-9.015625 6.457031-15.558594 0-14.679688-10.820312-19.269531-19.515624-22.960938zm0 0"/><path d="m250.417969 235.953125c-3.835938-3.300781-9.222657-4.976563-16.007813-4.976563-6.773437 0-12.144531 1.671876-15.957031 4.976563-4.300781 3.722656-6.480469 9.4375-6.480469 16.984375v26.601562c0 7.546876 2.179688 13.261719 6.480469 16.984376 3.8125 3.304687 9.183594 4.976562 15.957031 4.976562 6.785156 0 12.171875-1.671875 16.007813-4.976562 4.332031-3.726563 6.527343-9.441407 6.527343-16.984376v-26.601562c.003907-7.542969-2.195312-13.253906-6.527343-16.984375zm-6.125 43.585937c0 7.089844-3.414063 10.835938-9.882813 10.835938-6.492187 0-9.785156-3.644531-9.785156-10.835938v-26.601562c0-7.191406 3.292969-10.835938 9.785156-10.835938 6.46875 0 9.882813 3.746094 9.882813 10.835938zm0 0"/><path d="m297.175781 234.6875c-.78125-2.601562-3.96875-4.285156-8.128906-4.285156-3.117187 0-7.089844 1.125-8.035156 4.285156l-18.40625 59.980469c-.101563.398437-.191407.777343-.191407.984375 0 3.222656 4.707032 5.277344 7.945313 5.277344 2.414063 0 3.867187-.867188 4.316406-2.574219l3.597657-12.585938h21.640624l3.59375 12.585938c.449219 1.707031 1.90625 2.574219 4.320313 2.574219 3.601563 0 7.945313-2.355469 7.945313-5.277344 0-.242188-.0625-.484375-.136719-.761719zm-16.257812 41.101562 8.125-28.671874 8.125 28.671874zm0 0"/><path d="m346.0625 230.976562h-19.164062c-3.117188 0-4.800782 2.03125-4.800782 3.941407v61.972656c0 1.945313 1.980469 4.039063 6.324219 4.039063 3.144531 0 6.328125-1.386719 6.328125-4.039063v-21.992187h10.546875c14.535156 0 22.535156-7.730469 22.535156-21.769532v-.574218c.003907-13.914063-7.730469-21.578126-21.769531-21.578126zm9.121094 23.105469c0 7.089844-3.417969 10.835938-9.882813 10.835938h-10.550781v-22.816407h10.550781c6.464844 0 9.882813 3.746094 9.882813 10.835938zm0 0"/><path d="m512 112.816406c0-20.121094-11.128906-37.988281-28.480469-46.941406 2.703125-5.980469 4.105469-12.472656 4.105469-19.167969 0-25.753906-20.953125-46.707031-46.710938-46.707031-25.757812 0-46.707031 20.953125-46.707031 46.707031 0 3.871094.480469 7.710938 1.421875 11.4375-15.664062 1.519531-28.925781 11.324219-35.375 24.957031-8.652344-.527343-17.355468-.992187-26.03125-1.378906.0625-.835937.101563-1.679687.101563-2.53125 0-18.914062-15.386719-34.304687-34.300781-34.304687-18.914063 0-34.304688 15.390625-34.304688 34.304687 0 .308594.015625.617188.023438.925782-40.8125-.105469-82.042969 1.34375-122.863282 4.3125.066406-.9375.113282-1.882813.113282-2.839844 0-21.652344-17.617188-39.265625-39.269532-39.265625-10.386718 0-20.222656 4.097656-27.492187 11.230469-7.738281-4.558594-16.632813-7.015626-25.6875-7.015626-27.867188-.003906-50.542969 22.671876-50.542969 50.542969 0 21.566407 13.585938 40.015625 32.644531 47.257813-2.324219 14.421875-4.28125 28.996094-5.78125 43.40625-.441406 4.234375 2.632813 8.019531 6.867188 8.460937.269531.027344.539062.042969.804687.042969 3.894532 0 7.238282-2.949219 7.652344-6.910156 1.441406-13.878906 3.320312-27.910156 5.546875-41.796875.929687.050781 1.867187.082031 2.808594.082031 19.257812 0 36.53125-10.832031 45.046875-27.613281 2.65625.5625 5.375.84375 8.132812.84375 14.917969 0 27.914063-8.359375 34.558594-20.640625 43.691406-3.335938 87.890625-4.90625 131.585938-4.683594 5.816406 10.691406 17.152343 17.964844 30.15625 17.964844 12.421874 0 23.324218-6.640625 29.34375-16.558594 8.933593.375 17.910156.824219 26.84375 1.351562-.09375 1.152344-.148438 2.3125-.148438 3.488282 0 24.175781 19.664062 43.839844 43.839844 43.839844 5.367187 0 10.660156-.980469 15.621094-2.871094 9.773437 14.320312 25.878906 22.949218 43.601562 22.949218 6.375 0 12.488281-1.136718 18.148438-3.210937 10.621093 75.867187 9.566406 152.6875-3.175782 228.5-3.296875 19.648437-19.441406 34.859375-39.257812 36.988281-12.441406 1.34375-25.058594 2.554688-37.492188 3.605469-4.238281.359375-7.386718 4.082031-7.027344 8.324219.339844 4.015625 3.703126 7.054687 7.664063 7.054687.21875 0 .4375-.011719.660156-.03125 12.550781-1.058593 25.285157-2.28125 37.84375-3.636719 26.65625-2.863281 48.367188-23.324218 52.804688-49.753906 13.328125-79.335937 14.125-159.75 2.386719-239.097656 12.359374-9.6875 20.320312-24.738281 20.320312-41.621094zm-408.277344-7.367187c-3.28125 0-6.464844-.65625-9.460937-1.949219-1.984375-.859375-4.238281-.84375-6.207031.039062-1.972657.882813-3.484376 2.554688-4.164063 4.605469-4.773437 14.398438-18.175781 24.074219-33.347656 24.074219-19.375 0-35.136719-15.761719-35.136719-35.136719 0-19.378906 15.761719-35.140625 35.136719-35.140625 8.183593 0 15.855469 2.730469 22.1875 7.898438 1.675781 1.363281 3.851562 1.964844 5.980469 1.652344 2.136718-.3125 4.046874-1.507813 5.261718-3.292969 4.453125-6.558594 11.839844-10.472657 19.75-10.472657 13.15625 0 23.863282 10.703126 23.863282 23.859376 0 13.160156-10.707032 23.863281-23.863282 23.863281zm196.300782-7.359375c-10.421876 0-18.898438-8.476563-18.898438-18.898438s8.476562-18.898437 18.898438-18.898437c10.417968 0 18.898437 8.476562 18.898437 18.898437s-8.476563 18.898438-18.898437 18.898438zm125.460937 31.230468c-.953125-1.9375-2.671875-3.386718-4.746094-3.992187-.710937-.207031-1.4375-.308594-2.164062-.308594-1.390625 0-2.773438.375-3.984375 1.109375-4.417969 2.671875-9.496094 4.082032-14.6875 4.082032-15.679688 0-28.4375-12.757813-28.4375-28.433594 0-15.679688 12.757812-28.4375 28.4375-28.4375 1.945312 0 3.890625.199218 5.78125.589844 2.988281.617187 6.042968-.582032 7.816406-3.054688s1.925781-5.757812.386719-8.382812c-2.796875-4.777344-4.273438-10.234376-4.273438-15.785157 0-17.257812 14.042969-31.300781 31.300781-31.300781 17.261719 0 31.304688 14.042969 31.304688 31.300781 0 6.664063-2.070312 13.027344-5.988281 18.40625-1.464844 2.007813-1.867188 4.601563-1.085938 6.964844.789063 2.359375 2.664063 4.195313 5.039063 4.929687 15.796875 4.875 26.410156 19.261719 26.410156 35.808594 0 20.660156-16.808594 37.46875-37.46875 37.46875-14.390625 0-27.28125-8.03125-33.640625-20.964844zm0 0"/><path d="m369.160156 433.710938c-66.382812 4.445312-133.699218 4.75-200.179687.941406-6.695313-14.945313-21.695313-25.382813-39.101563-25.382813-.703125 0-1.402344.015625-2.101562.050781-4.097656-22.828124-24.101563-40.203124-48.089844-40.203124-12.496094 0-23.902344 4.71875-32.550781 12.460937-8.144531-52.464844-10.746094-105.550781-7.722657-157.941406.246094-4.25-3-7.890625-7.246093-8.132813-4.234375-.257812-7.890625 2.996094-8.132813 7.242188-3.269531 56.675781-.101562 114.136718 9.421875 170.777344.304688 1.824218.710938 3.667968 1.199219 5.503906-2.464844 5.828125-3.828125 12.230468-3.828125 18.945312 0 26.941406 21.917969 48.859375 48.859375 48.859375 3.253906 0 6.46875-.320312 9.621094-.953125 5.769531 17.0625 21.890625 29.0625 40.570312 29.0625 23.617188 0 42.835938-19.21875 42.835938-42.835937 0-.609375-.023438-1.210938-.046875-1.8125 29.464843 1.601562 59.078125 2.414062 88.703125 2.414062 36.359375 0 72.726562-1.210937 108.816406-3.625 4.246094-.285156 7.453125-3.957031 7.171875-8.199219-.285156-4.25-3.992187-7.453124-8.199219-7.171874zm-239.28125 45.824218c-13.929687 0-25.640625-10.421875-27.238281-24.238281-.277344-2.386719-1.648437-4.507813-3.710937-5.734375-1.207032-.71875-2.570313-1.085938-3.941407-1.085938-.96875 0-1.941406.183594-2.867187.554688-3.964844 1.589844-8.148438 2.394531-12.433594 2.394531-18.445312 0-33.449219-15.003906-33.449219-33.453125 0-18.445312 15.003907-33.453125 33.449219-33.453125 18.417969 0 33.410156 14.964844 33.453125 33.371094 0 .089844-.003906.195313-.003906.257813 0 2.394531 1.113281 4.648437 3.007812 6.105468 1.898438 1.460938 4.363281 1.953125 6.671875 1.339844 2.304688-.609375 4.679688-.921875 7.0625-.921875 15.125 0 27.429688 12.308594 27.429688 27.433594s-12.304688 27.429687-27.429688 27.429687zm0 0"/></svg>